<?xml version="1.0" encoding="UTF-8" standalone="no"?>
<!DOCTYPE svg PUBLIC "-//W3C//DTD SVG 1.1//EN" "http://www.w3.org/Graphics/SVG/1.1/DTD/svg11.dtd">
<svg width="100%" height="100%" viewBox="0 0 512 512" version="1.1" xmlns="http://www.w3.org/2000/svg" xmlns:xlink="http://www.w3.org/1999/xlink" xml:space="preserve" xmlns:serif="http://www.serif.com/" style="fill-rule:evenodd;clip-rule:evenodd;stroke-linejoin:round;stroke-miterlimit:2;">
    <g transform="matrix(0.775,0,0,0.775,3.6,111.6)">
        <path d="M491.36,116.64L395.36,20.64C392.342,17.646 388.251,15.975 384,16L64,16C37.668,16 16,37.668 16,64L16,448C16,474.332 37.668,496 64,496L448,496C474.332,496 496,474.332 496,448L496,128C496.025,123.749 494.354,119.658 491.36,116.64ZM320,48L320,144L192,144L192,48L320,48ZM128,464L128,352C128,343.223 135.223,336 144,336L368,336C376.777,336 384,343.223 384,352L384,464L128,464ZM464,448C464,456.777 456.777,464 448,464L416,464L416,352C416,325.668 394.332,304 368,304L144,304C117.668,304 96,325.668 96,352L96,464L64,464C55.223,464 48,456.777 48,448L48,64C48,55.223 55.223,48 64,48L160,48L160,144C160,161.555 174.445,176 192,176L320,176C337.555,176 352,161.555 352,144L352,48L377.44,48L464,134.56L464,448Z" style="fill-rule:nonzero;"/>
    </g>
    <g id="ARROW_48" transform="matrix(0.281307,0,0,0.281307,354.013,16.7636)">
        <path d="M505,7C500.498,2.483 494.377,-0.059 488,-0.059C481.623,-0.059 475.502,2.483 471,7L311.6,166.4L311.6,59.72C311.6,46.554 300.766,35.72 287.6,35.72C274.434,35.72 263.6,46.554 263.6,59.72L263.6,223.72C263.6,237.259 274.741,248.4 288.28,248.4L452.17,248.4C465.164,248.402 475.921,237.852 476.17,224.86C476.43,211.41 465.09,200.4 451.63,200.4L345.63,200.4L505,41C509.517,36.498 512.059,30.377 512.059,24C512.059,17.623 509.517,11.502 505,7Z" style="fill-rule:nonzero;"/>
        <path d="M223.73,263.36L59.84,263.36C46.846,263.358 36.089,273.908 35.84,286.9C35.58,300.35 46.92,311.36 60.38,311.36L166.43,311.36L7,470.79C-2.309,480.1 -2.309,495.42 7,504.73C16.31,514.039 31.63,514.039 40.94,504.73L200.34,345.33L200.34,452.05C200.34,465.216 211.174,476.05 224.34,476.05C237.506,476.05 248.34,465.216 248.34,452.05L248.34,288.05C248.351,274.532 237.248,263.393 223.73,263.36Z" style="fill-rule:nonzero;"/>
    </g>
</svg>
