<?xml version="1.0" encoding="UTF-8" standalone="no"?>
<!DOCTYPE svg PUBLIC "-//W3C//DTD SVG 1.1//EN" "http://www.w3.org/Graphics/SVG/1.1/DTD/svg11.dtd">
<svg width="100%" height="100%" viewBox="0 0 512 512" version="1.1" xmlns="http://www.w3.org/2000/svg" xmlns:xlink="http://www.w3.org/1999/xlink" xml:space="preserve" xmlns:serif="http://www.serif.com/" style="fill-rule:evenodd;clip-rule:evenodd;stroke-linejoin:round;stroke-miterlimit:2;">
    <g transform="matrix(0.775,0,0,0.775,3.6,111.6)">
        <path d="M491.36,116.64L395.36,20.64C392.342,17.646 388.251,15.975 384,16L64,16C37.668,16 16,37.668 16,64L16,448C16,474.332 37.668,496 64,496L448,496C474.332,496 496,474.332 496,448L496,128C496.025,123.749 494.354,119.658 491.36,116.64ZM320,48L320,144L192,144L192,48L320,48ZM128,464L128,352C128,343.223 135.223,336 144,336L368,336C376.777,336 384,343.223 384,352L384,464L128,464ZM464,448C464,456.777 456.777,464 448,464L416,464L416,352C416,325.668 394.332,304 368,304L144,304C117.668,304 96,325.668 96,352L96,464L64,464C55.223,464 48,456.777 48,448L48,64C48,55.223 55.223,48 64,48L160,48L160,144C160,161.555 174.445,176 192,176L320,176C337.555,176 352,161.555 352,144L352,48L377.44,48L464,134.56L464,448Z" style="fill-rule:nonzero;"/>
    </g>
    <g transform="matrix(0.296875,0,0,0.296875,349,12.9988)">
        <g>
            <g>
                <path d="M511.894,19.228C511.863,18.912 511.804,18.606 511.759,18.295C511.705,17.918 511.661,17.54 511.587,17.165C511.516,16.807 511.418,16.46 511.329,16.109C511.248,15.786 511.177,15.461 511.08,15.141C510.976,14.796 510.846,14.463 510.725,14.126C510.61,13.807 510.505,13.485 510.375,13.17C510.245,12.855 510.091,12.554 509.947,12.247C509.794,11.923 509.65,11.596 509.48,11.278C509.322,10.984 509.143,10.704 508.972,10.418C508.786,10.107 508.61,9.792 508.407,9.488C508.196,9.172 507.96,8.875 507.733,8.571C507.543,8.318 507.367,8.058 507.165,7.811C506.722,7.272 506.256,6.753 505.763,6.26C505.759,6.256 505.756,6.252 505.752,6.248C505.748,6.244 505.744,6.242 505.741,6.238C505.247,5.745 504.729,5.278 504.189,4.835C503.942,4.632 503.682,4.456 503.428,4.266C503.125,4.039 502.828,3.804 502.512,3.593C502.208,3.39 501.893,3.214 501.581,3.028C501.295,2.857 501.016,2.678 500.722,2.52C500.404,2.35 500.078,2.206 499.753,2.053C499.446,1.908 499.144,1.755 498.83,1.624C498.515,1.494 498.193,1.388 497.873,1.274C497.536,1.153 497.204,1.024 496.86,0.92C496.54,0.823 496.214,0.752 495.891,0.671C495.54,0.582 495.193,0.484 494.836,0.413C494.461,0.339 494.083,0.294 493.706,0.24C493.395,0.196 493.089,0.136 492.773,0.105C492.072,0.037 491.37,0 490.667,0L341.333,0C329.551,0 320,9.551 320,21.333C320,33.115 329.551,42.666 341.333,42.666L439.163,42.666L283.582,198.248C275.251,206.579 275.251,220.087 283.582,228.418C291.913,236.749 305.421,236.749 313.752,228.418L469.333,72.837L469.333,170.667C469.333,182.449 478.884,192 490.666,192C502.448,192 512,182.449 512,170.667L512,21.335C512,20.631 511.963,19.928 511.894,19.228Z" style="fill-rule:nonzero;"/>
                <path d="M198.248,283.582L42.667,439.163L42.667,341.333C42.667,329.551 33.116,320 21.334,320C9.551,320 0,329.551 0,341.333L0,490.666C0,491.369 0.037,492.071 0.106,492.771C0.137,493.086 0.196,493.392 0.241,493.704C0.295,494.081 0.339,494.46 0.414,494.834C0.485,495.192 0.583,495.538 0.672,495.889C0.753,496.213 0.824,496.538 0.921,496.858C1.025,497.202 1.154,497.535 1.275,497.871C1.39,498.191 1.495,498.513 1.625,498.828C1.755,499.143 1.909,499.444 2.054,499.751C2.207,500.075 2.351,500.402 2.521,500.72C2.679,501.014 2.858,501.293 3.029,501.579C3.215,501.89 3.391,502.206 3.594,502.51C3.805,502.826 4.04,503.122 4.267,503.426C4.457,503.68 4.633,503.94 4.836,504.187C5.279,504.727 5.746,505.246 6.239,505.739C6.243,505.743 6.245,505.747 6.249,505.75C6.253,505.754 6.257,505.757 6.261,505.761C6.754,506.253 7.273,506.72 7.812,507.163C8.059,507.366 8.319,507.542 8.572,507.731C8.876,507.958 9.173,508.194 9.489,508.405C9.792,508.608 10.107,508.784 10.419,508.97C10.705,509.141 10.984,509.32 11.279,509.478C11.597,509.648 11.924,509.792 12.248,509.945C12.555,510.09 12.857,510.243 13.171,510.373C13.486,510.503 13.807,510.608 14.127,510.723C14.464,510.844 14.797,510.973 15.142,511.078C15.462,511.175 15.787,511.246 16.11,511.327C16.461,511.416 16.808,511.514 17.166,511.585C17.541,511.659 17.919,511.703 18.296,511.757C18.607,511.801 18.914,511.861 19.229,511.892C19.929,511.961 20.631,511.998 21.333,511.998L170.667,511.998C182.449,511.998 192,502.447 192,490.665C192,478.883 182.449,469.332 170.667,469.332L72.837,469.332L228.419,313.75C236.75,305.419 236.75,291.911 228.419,283.58C220.088,275.249 206.58,275.251 198.248,283.582Z" style="fill-rule:nonzero;"/>
            </g>
        </g>
    </g>
</svg>
